HIERARCHY
ROOT Pelvis
{
	OFFSET 0.000000 0.000000 0.000000
	CHANNELS 6 Xposition Yposition Zposition Xrotation Yrotation Zrotation
	JOINT LeftUpLeg_virtual
	{
		OFFSET 0.000000 0.000000 0.000000
		CHANNELS 3 Xrotation Yrotation Zrotation
		JOINT LeftUpLeg
		{
			OFFSET 18.735201 -5.666702 -4.541200
			CHANNELS 3 Xrotation Yrotation Zrotation
			JOINT LeftLeg
			{
				OFFSET -0.021200 -31.938179 0.493100
				CHANNELS 3 Xrotation Yrotation Zrotation
				JOINT LeftFoot
				{
					OFFSET 0.021200 -31.938179 -4.336299
					CHANNELS 3 Xrotation Yrotation Zrotation
					JOINT LeftToeBase
					{
						OFFSET 0.943001 -26.722000 15.023500
						CHANNELS 3 Xrotation Yrotation Zrotation
						End Site
						{
							OFFSET 0 0 0
						}
					}
				}
			}
		}
	}
	JOINT RightUpLeg_virtual
	{
		OFFSET 0.000000 0.000000 0.000000
		CHANNELS 3 Xrotation Yrotation Zrotation
		JOINT RightUpLeg
		{
			OFFSET -18.735201 -5.666702 -4.541200
			CHANNELS 3 Xrotation Yrotation Zrotation
			JOINT RightLeg
			{
				OFFSET 0.018946 -31.938133 0.493100
				CHANNELS 3 Xrotation Yrotation Zrotation
				JOINT RightFoot
				{
					OFFSET -0.018946 -31.938126 -4.336299
					CHANNELS 3 Xrotation Yrotation Zrotation
					JOINT RightToeBase
					{
						OFFSET -0.943001 -26.722004 15.023500
						CHANNELS 3 Xrotation Yrotation Zrotation
						End Site
						{
							OFFSET 0 0 0
						}
					}
				}
			}
		}
	}
	JOINT Hips_virtual
	{
		OFFSET 0.000000 0.000000 0.000000
		CHANNELS 3 Xrotation Yrotation Zrotation
		JOINT Hips
		{
			OFFSET -0.000000 -0.000000 -0.000000
			CHANNELS 3 Xrotation Yrotation Zrotation
			JOINT Spine
			{
				OFFSET 0.000000 10.199997 -0.299500
				CHANNELS 3 Xrotation Yrotation Zrotation
				JOINT Spine1
				{
					OFFSET 0.000000 11.900002 -1.516600
					CHANNELS 3 Xrotation Yrotation Zrotation
					JOINT Spine2
					{
						OFFSET 0.000000 13.600006 -2.842500
						CHANNELS 3 Xrotation Yrotation Zrotation
						JOINT Neck_virtual
						{
							OFFSET 0.000000 0.000000 0.000000
							CHANNELS 3 Xrotation Yrotation Zrotation
							JOINT Neck
							{
								OFFSET 0.000000 9.624100 -2.890100
								CHANNELS 3 Xrotation Yrotation Zrotation
								JOINT Head
								{
									OFFSET 0.000000 14.068802 -1.351900
									CHANNELS 3 Xrotation Yrotation Zrotation
									End Site
									{
										OFFSET 0 0 0
									}
								}
							}
						}
						JOINT LeftShoulder_virtual
						{
							OFFSET 0.000000 0.000000 0.000000
							CHANNELS 3 Xrotation Yrotation Zrotation
							JOINT LeftShoulder
							{
								OFFSET 15.263000 10.923401 -0.547700
								CHANNELS 3 Xrotation Yrotation Zrotation
								JOINT LeftArm
								{
									OFFSET 25.438599 -2.830597 -13.032500
									CHANNELS 3 Xrotation Yrotation Zrotation
									JOINT LeftForeArm
									{
										OFFSET 29.960503 0.000000 0.000000
										CHANNELS 3 Xrotation Yrotation Zrotation
										JOINT LeftHand
										{
											OFFSET 27.849251 0.000000 0.000000
											CHANNELS 3 Xrotation Yrotation Zrotation
											End Site
											{
												OFFSET 0 0 0
											}
										}
									}
								}
							}
						}
						JOINT RightShoulder_virtual
						{
							OFFSET 0.000000 0.000000 0.000000
							CHANNELS 3 Xrotation Yrotation Zrotation
							JOINT RightShoulder
							{
								OFFSET -15.263000 10.923401 -0.547700
								CHANNELS 3 Xrotation Yrotation Zrotation
								JOINT RightArm
								{
									OFFSET -25.438599 -2.830597 -13.032500
									CHANNELS 3 Xrotation Yrotation Zrotation
									JOINT RightForeArm
									{
										OFFSET -29.960503 0.000000 0.000000
										CHANNELS 3 Xrotation Yrotation Zrotation
										JOINT RightHand
										{
											OFFSET -27.849251 0.000000 0.000000
											CHANNELS 3 Xrotation Yrotation Zrotation
											End Site
											{
												OFFSET 0 0 0
											}
										}
									}
								}
							}
						}
					}
				}
			}
		}
	}
}
MOTION
Frames: 9
Frame Time: 0.03333333
-2.361493 124.425102 3.821573 0.000000 0.000000 0.000000 -12.850770 -46.712750 5.633567 -62.843314 -8.137703 24.377881 66.901081 1.387940 4.512881 12.285935 -1.771668 2.662379 0.000000 0.000000 0.000000 -52.136046 -54.016292 2.479255 -90.977847 -16.766282 -8.259814 107.003116 15.295177 -1.024411 27.684352 16.692682 30.034541 0.000000 0.000000 0.000000 3.396749 -19.067407 1.039931 16.247357 -12.617924 0.350888 28.219563 -2.130681 -7.532069 15.344723 0.117445 -4.906468 0.000000 0.000000 0.000000 6.205967 2.896029 -4.941020 1.253798 3.000786 -1.977867 0.000000 0.000000 0.000000 14.269215 0.868432 -1.327294 9.421563 -3.741800 -0.052685 12.085595 -0.558830 6.362404 14.668089 -20.031331 16.981887 0.000000 0.000000 0.000000 13.866478 1.886539 -2.588573 13.521510 12.087204 -9.739524 -49.145475 -11.045472 23.842983 -24.256659 47.090650 13.843433 0.000000 0.000000 0.000000 
-2.265894 124.425323 3.830919 0.000000 0.000000 0.000000 -12.909298 -46.932743 5.621497 -62.870102 -8.222255 24.365356 67.084178 1.359082 4.572997 12.512884 -1.834451 2.723821 0.000000 0.000000 0.000000 -52.904525 -54.369071 2.236255 -91.456622 -16.888213 -8.192417 107.032923 15.257936 -1.046534 27.795682 16.706658 29.940800 0.000000 0.000000 0.000000 3.364316 -19.115638 1.096118 16.253113 -12.351677 0.403764 28.133701 -2.132385 -7.595672 15.339249 0.122387 -4.924869 0.000000 0.000000 0.000000 6.181991 2.885663 -4.952095 1.254611 3.030017 -1.978785 0.000000 0.000000 0.000000 14.290316 0.839067 -1.366409 9.369365 -3.813017 0.055592 11.940779 -0.399558 6.835734 14.752852 -19.686875 16.970536 0.000000 0.000000 0.000000 13.945523 1.908493 -2.575666 13.633960 12.089620 -9.890874 -49.241883 -10.971924 23.503658 -24.483952 47.303035 14.097260 0.000000 0.000000 0.000000 
-2.100511 124.423042 3.854420 0.000000 0.000000 0.000000 -13.004932 -47.304657 5.606973 -62.910557 -8.369168 24.347300 67.414568 1.295484 4.673503 12.916213 -1.956459 2.810329 0.000000 0.000000 0.000000 -54.356653 -55.009483 1.751947 -92.339998 -17.106390 -8.077428 107.092824 15.182711 -1.087568 28.001918 16.724555 29.758724 0.000000 0.000000 0.000000 3.297906 -19.236260 1.200113 16.268614 -11.831311 0.480810 27.964854 -2.127897 -7.710440 15.326487 0.129918 -4.959754 0.000000 0.000000 0.000000 6.132047 2.868942 -4.975292 1.259702 3.082429 -1.980662 0.000000 0.000000 0.000000 14.324199 0.783329 -1.441123 9.269730 -3.952431 0.259673 11.671874 -0.104341 7.729477 14.924201 -19.063727 16.959016 0.000000 0.000000 0.000000 14.090771 1.947558 -2.550492 13.840026 12.096238 -10.171433 -49.423454 -10.833466 22.876399 -24.890312 47.673737 14.566143 0.000000 0.000000 0.000000 
-1.907965 124.416199 3.897961 0.000000 0.000000 0.000000 -13.098447 -47.721364 5.611782 -62.941921 -8.544159 24.338327 67.835718 1.190147 4.783832 13.413366 -2.130101 2.866808 0.000000 0.000000 0.000000 -56.339956 -55.830461 1.040024 -93.503145 -17.379095 -7.945086 107.186555 15.068567 -1.141326 28.278317 16.730241 29.499454 0.000000 0.000000 0.000000 3.198905 -19.464101 1.336963 16.300697 -11.085103 0.531859 27.723606 -2.106755 -7.855756 15.304330 0.136203 -5.007693 0.000000 0.000000 0.000000 6.054848 2.851811 -5.010850 1.273962 3.148005 -1.983113 0.000000 0.000000 0.000000 14.357978 0.706480 -1.543782 9.131573 -4.153169 0.539908 11.305531 0.281441 8.954795 15.178410 -18.277328 16.966038 0.000000 0.000000 0.000000 14.282133 1.995299 -2.514767 14.109390 12.106919 -10.545031 -49.671991 -10.645568 22.049753 -25.401199 48.122825 15.187221 0.000000 0.000000 0.000000 
-1.733542 124.406685 3.963705 0.000000 0.000000 0.000000 -13.142824 -48.077056 5.667839 -62.938875 -8.714440 24.358616 68.289775 1.041674 4.875068 13.916470 -2.342620 2.845058 0.000000 0.000000 0.000000 -58.660376 -56.717915 0.139255 -94.803920 -17.663556 -7.823078 107.323746 14.915907 -1.199577 28.602356 16.708144 29.180033 0.000000 0.000000 0.000000 3.076945 -19.824136 1.488334 16.357193 -10.162762 0.499571 27.433137 -2.063374 -8.009269 15.272393 0.137245 -5.064321 0.000000 0.000000 0.000000 5.953331 2.839165 -5.056103 1.300991 3.215871 -1.984876 0.000000 0.000000 0.000000 14.380139 0.615058 -1.662195 8.966946 -4.402909 0.877242 10.855808 0.693434 10.409002 15.497168 -17.466733 17.011442 0.000000 0.000000 0.000000 14.499722 2.041901 -2.471669 14.410227 12.115738 -10.972871 -49.968414 -10.426781 21.127018 -25.947872 48.582459 15.896309 0.000000 0.000000 0.000000 
-1.611626 124.399727 4.048135 0.000000 0.000000 0.000000 -13.099862 -48.298218 5.805651 -62.882642 -8.858092 24.427065 68.729851 0.858962 4.929663 14.354155 -2.575263 2.724248 0.000000 0.000000 0.000000 -61.108118 -57.580831 -0.880545 -96.111048 -17.929344 -7.727038 107.517887 14.728827 -1.253887 28.959534 16.649785 28.822968 0.000000 0.000000 0.000000 2.951059 -20.313184 1.636067 16.444927 -9.137427 0.337746 27.128623 -2.001984 -8.152833 15.233349 0.130101 -5.124884 0.000000 0.000000 0.000000 5.836309 2.832639 -5.105022 1.341296 3.276996 -1.983893 0.000000 0.000000 0.000000 14.385999 0.516106 -1.780535 8.789694 -4.682720 1.259484 10.314975 1.054646 11.989583 15.844161 -16.766480 17.108772 0.000000 0.000000 0.000000 14.728476 2.078735 -2.425646 14.716426 12.111047 -11.422656 -50.297612 -10.192694 20.203660 -26.491917 49.021692 16.646583 0.000000 0.000000 0.000000 
-1.557925 124.399277 4.144912 0.000000 0.000000 0.000000 -12.955802 -48.353832 6.038499 -62.767622 -8.965813 24.552425 69.122361 0.660897 4.944454 14.682026 -2.804650 2.516788 0.000000 0.000000 0.000000 -63.481315 -58.367668 -1.926675 -97.319766 -18.165021 -7.658356 107.779716 14.517072 -1.297852 29.342168 16.557671 28.454416 0.000000 0.000000 0.000000 2.844003 -20.894051 1.765121 16.566842 -8.098352 0.027718 26.849653 -1.936078 -8.275698 15.192733 0.113497 -5.184634 0.000000 0.000000 0.000000 5.716660 2.830252 -5.149919 1.392111 3.325589 -1.977951 0.000000 0.000000 0.000000 14.379777 0.416775 -1.881931 8.613667 -4.968382 1.683228 9.660631 1.287613 13.596665 16.171077 -16.282316 17.259106 0.000000 0.000000 0.000000 14.958306 2.100442 -2.381627 15.009612 12.080201 -11.872538 -50.649049 -9.950017 19.350061 -27.027873 49.445795 17.412118 0.000000 0.000000 0.000000 
-1.569333 124.403198 4.250324 0.000000 0.000000 0.000000 -12.726204 -48.248842 6.353408 -62.601614 -9.037238 24.727810 69.444651 0.471110 4.927357 14.883218 -3.007165 2.259049 0.000000 0.000000 0.000000 -65.608857 -59.066499 -2.904338 -98.357415 -18.376129 -7.608441 108.109880 14.296003 -1.328677 29.743312 16.444524 28.101058 0.000000 0.000000 0.000000 2.772702 -21.505325 1.865174 16.719234 -7.133664 -0.413512 26.629557 -1.882743 -8.374605 15.157624 0.087728 -5.239315 0.000000 0.000000 0.000000 5.607018 2.827867 -5.184335 1.448516 3.359086 -1.965512 0.000000 0.000000 0.000000 14.372325 0.324141 -1.952093 8.450553 -5.235056 2.151258 8.874480 1.331285 15.130783 16.431065 -16.074085 17.448473 0.000000 0.000000 0.000000 15.181383 2.105799 -2.344111 15.277559 12.015880 -12.310983 -51.012839 -9.693595 18.601938 -27.564449 49.874294 18.175227 0.000000 0.000000 0.000000 
-1.629631 124.402664 4.367442 0.000000 0.000000 0.000000 -12.445908 -48.010223 6.716688 -62.399392 -9.076306 24.933261 69.685258 0.310425 4.890733 14.965254 -3.164883 1.993662 0.000000 0.000000 0.000000 -67.371067 -59.692718 -3.739824 -99.183602 -18.577391 -7.565469 108.495970 14.083883 -1.347294 30.151218 16.328431 27.786166 0.000000 0.000000 0.000000 2.741233 -22.081802 1.930966 16.891075 -6.310017 -0.935433 26.487834 -1.855547 -8.451679 15.134973 0.054039 -5.285902 0.000000 0.000000 0.000000 5.515721 2.821424 -5.205403 1.505001 3.377354 -1.946235 0.000000 0.000000 0.000000 14.375906 0.244896 -1.982565 8.307668 -5.462688 2.667424 7.961436 1.158060 16.496240 16.593202 -16.148113 17.650961 0.000000 0.000000 0.000000 15.390108 2.097162 -2.316586 15.511897 11.919823 -12.734338 -51.372742 -9.409303 17.959156 -28.098131 50.314274 18.908274 0.000000 0.000000 0.000000 
